<?xml version="1.0" encoding="UTF-8"?><svg id="Layer_2" xmlns="http://www.w3.org/2000/svg" viewBox="0 0 552.03 81.5"><defs><style>.cls-1{fill:#fff;}.cls-2{fill:#ef465f;}</style></defs><g id="Layer_1-2"><g><path class="cls-1" d="M124.83,8.41h3.97c3.01,0,6.17,.1,9.4,.3,3.19,.2,5.44,.45,6.7,.73l.88,.2-.18-.89c-.21-1.08-.32-2.33-.32-3.73s.11-2.67,.32-3.78l.16-.83-.83,.14c-1.96,.33-4.31,.57-6.97,.71-2.68,.15-5.76,.22-9.16,.22l-8.55,.05c-3.13,0-6.28-.08-9.35-.25-3.06-.16-5.26-.38-6.54-.62l-.86-.17,.17,.86c.14,.7,.26,1.98,.35,3.8,.09,1.86,.21,5.19,.36,10,.15,7.52,.22,16.12,.22,25.55s-.07,18.01-.22,25.6c-.15,4.82-.27,8.15-.36,10.01-.09,1.82-.21,3.1-.35,3.81l-.17,.83,.84-.14c1.54-.25,3.88-.46,6.95-.63,3.07-.17,6.09-.25,8.96-.25l8.56,.05c2.72,0,5.73,.09,8.94,.28,3.22,.18,5.64,.4,7.2,.65l.83,.14-.16-.82c-.21-1.11-.32-2.38-.32-3.78s.11-2.72,.32-3.83l.16-.85-.85,.16c-1.48,.29-4.09,.56-7.76,.79-3.67,.24-7.26,.36-10.67,.36l-10.8-.1c-.21-8.7-.3-18.97-.26-30.52l9.35,.05c3.28,0,6.69,.09,10.16,.28,3.43,.18,5.83,.4,7.12,.65l.86,.17-.17-.86c-.21-1.06-.32-2.29-.32-3.64s.11-2.63,.32-3.69l.17-.86-.86,.17c-1.29,.25-3.69,.47-7.12,.65-3.42,.18-6.84,.27-10.16,.27l-9.39,.05,.32-27.16c2.83-.13,5.91-.17,9.13-.14"/><path class="cls-1" d="M238.24,1.55c-1.44,0-2.73-.09-3.83-.27l-.84-.14,.17,.84c.14,.67,.26,1.93,.35,3.74,.09,1.85,.21,5.14,.36,10.06,.16,7.72,.23,16.39,.23,25.77l-.05,18.43-17.6-18.28c-14.9-15.67-27.3-29.11-36.87-39.95l-.18-.2h-4.29l.14,.7c.14,.72,.26,2,.35,3.81,.09,1.86,.21,5.19,.36,10,.15,7.36,.22,15.68,.22,24.72s-.07,17.43-.22,24.93c-.15,4.82-.27,8.15-.36,10.01-.09,1.81-.2,3.09-.35,3.8l-.16,.83,.84-.14c1.09-.18,2.38-.27,3.82-.27s2.73,.09,3.83,.27l.81,.13-.14-.81c-.14-.82-.27-2.16-.38-4-.11-1.88-.24-5.19-.39-9.85-.22-7.42-.35-15.84-.39-25.01V22.86l17.71,18.45c14.91,15.7,27.32,29.15,36.87,39.99l.18,.2h3.95l-.02-.61c-.37-10.45-.55-23.71-.55-39.39,0-9.56,.07-18.21,.22-25.71,.15-4.92,.27-8.21,.36-10.06,.09-1.81,.2-3.07,.35-3.74l.17-.84-.84,.14c-1.1,.18-2.39,.27-3.83,.27"/><path class="cls-1" d="M318.71,40.76c-6.71-15.4-12.21-28.47-16.33-38.85l-.15-.37h-3.5l-.15,.38c-4.1,10.5-9.7,23.6-16.66,38.94-4.1,9.07-7.96,17.36-11.47,24.6-2.44,4.98-4.16,8.45-5.13,10.31-.94,1.85-1.59,3.03-1.94,3.52l-.79,1.11,1.35-.19c1.29-.18,2.76-.27,4.4-.27s3.16,.09,4.45,.27l.53,.07,.12-.52c.51-2.23,1.08-4.28,1.7-6.1,.62-1.83,1.62-4.43,2.97-7.73,1.81-4.66,3.92-9.74,6.26-15.11l4.32-10.16c3.32-7.74,6.48-14.86,9.4-21.17l9.23,21.28,10.54,25.17c1.5,3.58,2.58,6.33,3.22,8.16,.64,1.84,1.2,3.74,1.67,5.66l.12,.5,.51-.05c1.77-.18,3.82-.27,6.12-.27s4.37,.09,6.17,.27l1.03,.1-7.01-14.84c-3.33-7.29-7.03-15.61-10.98-24.72"/><path class="cls-1" d="M381.49,33.82c-5.41-1.84-9.4-3.99-11.87-6.38-2.4-2.34-3.63-5.21-3.63-8.52,0-3.75,1.26-6.86,3.76-9.24,2.5-2.38,5.8-3.59,9.78-3.59,2.78,0,5.39,.73,7.75,2.18,2.37,1.45,4.3,3.51,5.76,6.13l.17,.3h2.42l.1-.46c.36-1.66,.71-3.1,1.04-4.27,.33-1.18,.78-2.58,1.32-4.16l.15-.43-.38-.25c-2.58-1.68-5.43-2.97-8.5-3.82C386.29,.43,382.99,0,379.53,0c-6.45,0-12,2.11-16.47,6.28-4.48,4.18-6.75,9.36-6.75,15.39,0,5.64,1.56,10.23,4.62,13.64,3.07,3.4,8.24,6.38,15.37,8.83,5.44,1.88,9.45,4.11,11.92,6.64,2.42,2.49,3.64,5.6,3.64,9.25,0,4.49-1.46,8.21-4.35,11.06-2.89,2.85-6.67,4.3-11.23,4.3-3.33,0-6.58-.94-9.65-2.8-3.08-1.85-5.47-4.3-7.1-7.26l-.23-.41-2.58,.78-.05,.37c-.22,1.49-.44,2.79-.66,3.86-.22,1.07-.55,2.36-.99,3.85l-.09,.32,.22,.24c2.16,2.34,4.97,4.14,8.38,5.35,3.38,1.19,7.37,1.8,11.87,1.8,7.19,0,13.36-2.42,18.35-7.2,4.99-4.79,7.52-10.73,7.52-17.68,0-5.75-1.53-10.43-4.56-13.91-3.03-3.48-8.15-6.48-15.22-8.89"/><path class="cls-1" d="M481.52,1.55c-1.82,0-3.47-.09-4.9-.27l-.48-.06-.15,.45c-.84,2.44-1.7,4.61-2.54,6.43-.86,1.85-2.18,4.33-3.93,7.39l-4.74,8.62c-3.12,5.71-6.04,10.78-8.69,15.08-2.77-4.52-5.93-9.92-9.39-16.08l-4.2-7.63c-1.98-3.48-3.43-6.17-4.32-8-.89-1.83-1.69-3.79-2.37-5.81l-.15-.44-.46,.04c-1.98,.18-4.31,.27-6.9,.27s-4.91-.09-6.9-.27l-1.49-.14,1,1.11c.24,.26,.83,1.06,2.32,3.32,1.21,1.86,3.46,5.36,6.73,10.51l7.01,11.26c4.77,7.83,8.84,14.74,12.12,20.55v3.93c0,8.64-.06,14.88-.17,18.56-.11,3.66-.35,6.74-.71,9.18l-.11,.75,.76-.08c1.65-.18,3.56-.27,5.68-.27s4.02,.09,5.68,.27l.75,.08-.11-.76c-.36-2.43-.6-5.51-.71-9.18-.11-3.67-.16-9.92-.16-18.56v-6.25c3.17-5.49,6.98-11.9,11.34-19.05l6.51-10.43c3.27-5.15,5.52-8.65,6.73-10.51,1.2-1.82,1.97-2.94,2.32-3.32l1.07-1.18-1.58,.21c-1.4,.18-3.02,.27-4.84,.27"/><path class="cls-1" d="M547.47,42.71c-3.03-3.48-8.15-6.47-15.22-8.89-5.41-1.84-9.4-3.99-11.87-6.38-2.41-2.34-3.63-5.21-3.63-8.52,0-3.75,1.27-6.86,3.77-9.24,2.51-2.38,5.79-3.59,9.78-3.59,2.78,0,5.39,.73,7.75,2.18,2.36,1.45,4.3,3.51,5.75,6.13l.17,.3h2.42l.1-.46c.36-1.67,.71-3.1,1.04-4.27,.32-1.15,.77-2.55,1.32-4.16l.15-.43-.38-.25c-2.58-1.68-5.43-2.97-8.5-3.83-3.06-.86-6.36-1.29-9.82-1.29-6.45,0-11.99,2.12-16.46,6.29-4.48,4.18-6.76,9.36-6.76,15.39,0,5.64,1.56,10.23,4.62,13.64,3.07,3.41,8.24,6.38,15.37,8.83,5.44,1.88,9.45,4.11,11.91,6.64,2.42,2.49,3.64,5.6,3.64,9.25,0,4.49-1.47,8.21-4.35,11.06-2.89,2.85-6.67,4.3-11.23,4.3-3.33,0-6.58-.94-9.66-2.8-3.08-1.85-5.47-4.3-7.1-7.26l-.23-.42-2.58,.78-.05,.37c-.22,1.49-.44,2.79-.66,3.86-.22,1.08-.55,2.37-.99,3.85l-.1,.32,.22,.25c2.15,2.34,4.97,4.14,8.38,5.34,3.38,1.19,7.37,1.8,11.87,1.8,7.19,0,13.36-2.42,18.35-7.2,4.99-4.79,7.52-10.73,7.52-17.68,0-5.75-1.54-10.43-4.56-13.91"/><path class="cls-1" d="M74.09,50.48h-22.2l-3.56,8.38h13.03c.68,8.27,.84,11.87,.87,12.98-6.03,2.37-12.13,3.56-18.12,3.56-9.43,0-17.09-3.08-22.76-9.14-5.68-6.08-8.57-14.32-8.57-24.5,0-10.8,2.88-19.55,8.57-26,5.67-6.42,13.32-9.68,22.74-9.68,4.31,0,8.69,1.03,13.02,3.07,4.34,2.04,8.08,4.81,11.1,8.23l.18,.21,2.56-.09,.1-.45c.4-1.85,.79-3.45,1.15-4.74,.36-1.3,.85-2.84,1.43-4.58l.16-.47-.44-.23c-4.48-2.37-9.26-4.15-14.22-5.3C54.16,.58,48.68,0,42.82,0,30.16,0,19.76,3.93,11.88,11.68,4,19.43,0,29.66,0,42.1c0,11.67,3.89,21.26,11.56,28.5,7.66,7.23,17.77,10.9,30.05,10.9s22.71-1.65,31.89-4.89l.4-.14-.02-.73c-.31-12.66,.18-24.48,.19-24.55l.05-.69h-.02s0,0,0,0Z"/></g><polygon class="cls-2" points="293.08 50.48 289.52 58.87 345.45 58.87 348.67 50.48 293.08 50.48"/></g></svg>